<svg width="40" height="40" viewBox="0 0 40 40" fill="none" xmlns="http://www.w3.org/2000/svg">
<g clip-path="url(#clip0_2_133)">
<path d="M17.4068 8.67411C17.4071 6.95882 16.8988 5.282 15.946 3.85566C14.9932 2.42933 13.6388 1.31757 12.0541 0.66105C10.4695 0.0045282 8.72567 -0.167269 7.04334 0.167349C5.361 0.501967 3.81569 1.32796 2.60285 2.54091C1.39001 3.75386 0.564122 5.29925 0.229658 6.98162C-0.104806 8.66398 0.0671748 10.4078 0.723841 11.9924C1.38051 13.577 2.49236 14.9313 3.91878 15.884C5.3452 16.8366 7.0221 17.3448 8.73739 17.3444C11.0367 17.3442 13.2419 16.4306 14.8677 14.8046C16.4935 13.1787 17.4068 10.9735 17.4068 8.67411ZM2.07218 8.67411C2.07218 7.35642 2.46288 6.06832 3.1949 4.97268C3.92692 3.87703 4.96737 3.02305 6.18471 2.51868C7.40205 2.01432 8.74161 1.88222 10.034 2.13912C11.3264 2.39601 12.5136 3.03036 13.4455 3.96194C14.3774 4.89352 15.0122 6.0805 15.2696 7.37281C15.5269 8.66512 15.3953 10.0048 14.8914 11.2223C14.3874 12.4398 13.5338 13.4805 12.4384 14.2129C11.343 14.9453 10.0551 15.3365 8.73739 15.337C6.97078 15.3347 5.27715 14.6321 4.02774 13.3831C2.77834 12.1341 2.0751 10.4407 2.07218 8.67411ZM27.063 17.3483C28.3562 17.348 29.6202 16.9642 30.6952 16.2456C31.7703 15.5269 32.6082 14.5057 33.1029 13.3109C33.5976 12.1161 33.7269 10.8014 33.4745 9.53315C33.222 8.26487 32.5992 7.09994 31.6848 6.18559C30.7703 5.27125 29.6053 4.64854 28.337 4.39628C27.0687 4.14402 25.754 4.2735 24.5593 4.76833C23.3646 5.26316 22.3434 6.10116 21.6249 7.17632C20.9063 8.25149 20.5227 9.51555 20.5226 10.8087C20.5225 11.6676 20.6916 12.5181 21.0203 13.3116C21.3489 14.1051 21.8307 14.8261 22.4381 15.4334C23.0454 16.0407 23.7665 16.5224 24.56 16.851C25.3536 17.1795 26.2041 17.3485 27.063 17.3483ZM27.063 6.27807C27.9588 6.27776 28.8345 6.54304 29.5795 7.04044C30.3244 7.53784 30.9052 8.24502 31.2483 9.07248C31.5914 9.89994 31.6814 10.8105 31.5069 11.6892C31.3325 12.5678 30.9014 13.3749 30.2682 14.0085C29.635 14.6421 28.8282 15.0738 27.9497 15.2488C27.0712 15.4239 26.1605 15.3345 25.3328 14.992C24.5051 14.6495 23.7976 14.0693 23.2997 13.3247C22.8018 12.58 22.5358 11.7045 22.5355 10.8087C22.5372 9.60816 23.0146 8.45722 23.8632 7.60801C24.7118 6.75881 25.8625 6.28058 27.063 6.27807ZM39.6714 20.2342C39.5524 20.0539 39.3908 19.9057 39.201 19.8028C39.0111 19.6999 38.7987 19.6454 38.5828 19.6441C38.1826 19.6551 37.8003 19.8125 37.5083 20.0865L29.8525 26.7382V22.1159C29.8512 21.2363 29.5012 20.3931 28.8793 19.7712C28.2573 19.1492 27.4141 18.7992 26.5345 18.7979H7.24192C6.8062 18.7979 6.37474 18.8838 5.97218 19.0505C5.56962 19.2173 5.20385 19.4617 4.89574 19.7698C4.58764 20.0779 4.34324 20.4437 4.17649 20.8462C4.00975 21.2488 3.92393 21.6802 3.92393 22.1159V36.6812C3.92581 37.5606 4.27599 38.4034 4.89783 39.0253C5.51967 39.6471 6.36251 39.9973 7.24192 39.9992H26.5313C27.4103 39.996 28.2525 39.6454 28.8741 39.0239C29.4956 38.4023 29.8462 37.5602 29.8493 36.6812V31.4111L37.5052 38.1261C37.7979 38.4001 38.1804 38.5579 38.5812 38.57C38.5948 38.5708 38.6086 38.5708 38.6222 38.57C38.8319 38.5623 39.0367 38.5043 39.2192 38.4009C39.4018 38.2975 39.5569 38.1518 39.6714 37.9759C39.8479 37.6919 39.9372 37.3623 39.9281 37.028V21.1908C39.9388 20.8536 39.8495 20.5207 39.6714 20.2342ZM27.8435 36.6812C27.8392 37.0275 27.6994 37.3583 27.4542 37.6028C27.2089 37.8474 26.8776 37.9861 26.5313 37.9894H7.24192C6.89588 37.9857 6.56502 37.8467 6.32009 37.6023C6.07517 37.3578 5.93563 37.0272 5.93132 36.6812V22.1159C5.93542 21.7697 6.07484 21.4388 6.31977 21.194C6.56469 20.9492 6.89567 20.81 7.24192 20.8061H26.5313C26.8778 20.8098 27.2091 20.9489 27.4543 21.1937C27.6995 21.4385 27.8392 21.7695 27.8435 22.1159V36.6812ZM37.9255 35.8122L30.2317 29.0687L37.9255 22.3893V35.8122Z" fill="white"/>
</g>
<defs>
<clipPath id="clip0_2_133">
<rect width="40" height="40" fill="white"/>
</clipPath>
</defs>
</svg>
